# xmcd CD database file
#
# Track frame offsets:
#	180
#	12424
#	27211
#	40731
#	55487
#	68723
#	80722
#	95313
#	108057
#	122901
#	135533
#	148643
#	160928
#	173611
#	185696
#	199535
#	212502
#	226625
#	240172
#	252124
#	266843
#	279945
#	293024
#	307153
#
# Disc length: 4253 seconds
#
# Revision: 0
# Processed by: cddbd v1.5.2PL0 Copyright (c) Steve Scherf et al.
# Submitted via: CDex 1.51
#
DISCID=46109b18
DTITLE=Various Artist - Black Blues Box Box 1 - CD 10
DYEAR=1900
DGENRE=Blues
TTITLE0=Blind Boy Fuller and Sonny Terry - New Love Blues
TTITLE1=Big Bill Broonzy - Southern Flood Blues
TTITLE2=Brownie Mc Ghee - Death Of Blind Boy Fuller
TTITLE3=Hot Lips Page - Thirsty Mama Blues
TTITLE4=Muddy Waters - Burr Clover Farm Blues
TTITLE5=T-Bone Walker - Dream Girl Blues
TTITLE6=Muddy Waters - Streamline Woman
TTITLE7=John Lee Hooker - Weeping Willow Blues
TTITLE8=Lonnie Johnson - Four Hands Are Better Than Two
TTITLE9=John Lee Williamson - Black Gal Blues
TTITLE10=Big Joe Turner - Cherry Red
TTITLE11=Arthur Big Boy Crudup - Gonny Be Some Changes Made
TTITLE12=Bukka White - Pinebluff, Arkansas
TTITLE13=Charlie Patton - Revenue Man Blues
TTITLE14=Big Joe Turner - Miss Brown Blues
TTITLE15=Brownie Mc Ghee - Born For But Luck 
TTITLE16=John Lee Hooker - Going Home
TTITLE17=Blind Lemon Jefferson - Matchbox
TTITLE18=T-Bone Walker - Sail On
TTITLE19=Muddy Waters - Baby Please Don´t Go
TTITLE20=Brownie Mc Ghee - Woman, I´m Done
TTITLE21=Arthur Big Boy Crudup - That´s Allright, Mama
TTITLE22=John Lee Hooker - Turn Over A New Leaf
TTITLE23=T-Bone Walker - She´s My Old Time Used To Be
EXTD=
EXTT0=
EXTT1=
EXTT2=
EXTT3=
EXTT4=
EXTT5=
EXTT6=
EXTT7=
EXTT8=
EXTT9=
EXTT10=
EXTT11=
EXTT12=
EXTT13=
EXTT14=
EXTT15=
EXTT16=
EXTT17=
EXTT18=
EXTT19=
EXTT20=
EXTT21=
EXTT22=
EXTT23=
PLAYORDER=
